<mxfile host="app.diagrams.net" modified="2023-10-07T19:51:52.030Z" agent="Mozilla/5.0 (Windows NT 10.0; Win64; x64) AppleWebKit/537.36 (KHTML, like Gecko) Chrome/117.0.0.0 Safari/537.36" etag="76bLWVqH9FRaSxsRegY9" version="21.7.5" type="github">
  <diagram name="Página-1" id="vqIrUY_rwokZF_1zu7V1">
    <mxGraphModel dx="880" dy="521" grid="1" gridSize="10" guides="1" tooltips="1" connect="1" arrows="1" fold="1" page="1" pageScale="1" pageWidth="827" pageHeight="1169" math="0" shadow="0">
      <root>
        <mxCell id="0" />
        <mxCell id="1" parent="0" />
        <mxCell id="-bEHwGGBQ361ID0Da9Ga-1" value="&lt;br&gt;- RG&lt;br&gt;- Nome&lt;br&gt;- Telefone&lt;br&gt;- Endereço" style="whiteSpace=wrap;html=1;aspect=fixed;align=left;" parent="1" vertex="1">
          <mxGeometry x="50" y="55" width="90" height="90" as="geometry" />
        </mxCell>
        <mxCell id="-bEHwGGBQ361ID0Da9Ga-3" value="Cliente" style="text;html=1;strokeColor=none;fillColor=none;align=center;verticalAlign=middle;whiteSpace=wrap;rounded=0;" parent="1" vertex="1">
          <mxGeometry x="65" y="50" width="60" height="30" as="geometry" />
        </mxCell>
        <mxCell id="-bEHwGGBQ361ID0Da9Ga-8" style="edgeStyle=orthogonalEdgeStyle;rounded=0;orthogonalLoop=1;jettySize=auto;html=1;" parent="1" source="-bEHwGGBQ361ID0Da9Ga-7" target="-bEHwGGBQ361ID0Da9Ga-9" edge="1">
          <mxGeometry relative="1" as="geometry">
            <mxPoint x="340" y="105" as="targetPoint" />
          </mxGeometry>
        </mxCell>
        <mxCell id="MAvULO3bnhE5ZWJ0Uj2u-7" style="edgeStyle=orthogonalEdgeStyle;rounded=0;orthogonalLoop=1;jettySize=auto;html=1;entryX=1;entryY=0.5;entryDx=0;entryDy=0;" edge="1" parent="1" source="-bEHwGGBQ361ID0Da9Ga-7" target="-bEHwGGBQ361ID0Da9Ga-1">
          <mxGeometry relative="1" as="geometry" />
        </mxCell>
        <mxCell id="-bEHwGGBQ361ID0Da9Ga-7" value="- Cliente&lt;br&gt;- Data da Compra&lt;br&gt;- Valor Total" style="rhombus;whiteSpace=wrap;html=1;" parent="1" vertex="1">
          <mxGeometry x="264" y="30" width="150" height="140" as="geometry" />
        </mxCell>
        <mxCell id="-bEHwGGBQ361ID0Da9Ga-9" value="&lt;br&gt;- Nome&lt;br&gt;- Tipo&lt;br&gt;- Preço&lt;br&gt;- Quantidade em Estoque" style="whiteSpace=wrap;html=1;aspect=fixed;align=left;" parent="1" vertex="1">
          <mxGeometry x="620" y="50" width="100" height="100" as="geometry" />
        </mxCell>
        <mxCell id="-bEHwGGBQ361ID0Da9Ga-10" value="Produtos" style="text;html=1;strokeColor=none;fillColor=none;align=center;verticalAlign=middle;whiteSpace=wrap;rounded=0;" parent="1" vertex="1">
          <mxGeometry x="640" y="40" width="60" height="40" as="geometry" />
        </mxCell>
        <mxCell id="-bEHwGGBQ361ID0Da9Ga-12" value="1" style="text;html=1;strokeColor=none;fillColor=none;align=center;verticalAlign=middle;whiteSpace=wrap;rounded=0;" parent="1" vertex="1">
          <mxGeometry x="250" y="55" width="60" height="30" as="geometry" />
        </mxCell>
        <mxCell id="MAvULO3bnhE5ZWJ0Uj2u-6" value="Compra" style="text;html=1;strokeColor=none;fillColor=none;align=center;verticalAlign=middle;whiteSpace=wrap;rounded=0;" vertex="1" parent="1">
          <mxGeometry x="309" y="45" width="60" height="30" as="geometry" />
        </mxCell>
        <mxCell id="MAvULO3bnhE5ZWJ0Uj2u-9" value="N" style="text;html=1;strokeColor=none;fillColor=none;align=center;verticalAlign=middle;whiteSpace=wrap;rounded=0;" vertex="1" parent="1">
          <mxGeometry x="370" y="55" width="60" height="30" as="geometry" />
        </mxCell>
      </root>
    </mxGraphModel>
  </diagram>
</mxfile>
